<svg xmlns="http://www.w3.org/2000/svg" xmlns:xlink="http://www.w3.org/1999/xlink" width="44" height="44" version="1.1" style="block-size:24px;border-block-end-color:rgb(51, 15, 26);border-block-start-color:rgb(51, 15, 26);border-bottom-color:rgb(51, 15, 26);border-inline-end-color:rgb(51, 15, 26);border-inline-start-color:rgb(51, 15, 26);border-left-color:rgb(51, 15, 26);border-right-color:rgb(51, 15, 26);border-top-color:rgb(51, 15, 26);box-sizing:border-box;caret-color:rgb(51, 15, 26);color:rgb(51, 15, 26);column-rule-color:rgb(51, 15, 26);font-size:20px;height:24px;inline-size:24px;line-height:30px;outline-color:rgb(51, 15, 26);text-decoration-color:rgb(51, 15, 26);width:24px;-webkit-text-emphasis-color:rgb(51, 15, 26);-webkit-text-fill-color:rgb(51, 15, 26);-webkit-text-stroke-color:rgb(51, 15, 26);--layout-sidebar-right-width: 1fr;--layout:  240px  2fr  1fr;--layout-content-width: 2fr;"><rect id="backgroundrect" width="100%" height="100%" x="0" y="0" fill="none" stroke="none"/>
    
<g class="currentLayer" style=""><title>Layer 1</title><g style="block-size:auto;border-block-end-color:rgb(51, 15, 26);border-block-start-color:rgb(51, 15, 26);border-bottom-color:rgb(51, 15, 26);border-inline-end-color:rgb(51, 15, 26);border-inline-start-color:rgb(51, 15, 26);border-left-color:rgb(51, 15, 26);border-right-color:rgb(51, 15, 26);border-top-color:rgb(51, 15, 26);box-sizing:border-box;caret-color:rgb(51, 15, 26);color:rgb(51, 15, 26);column-rule-color:rgb(51, 15, 26);display:inline;font-size:20px;height:auto;inline-size:auto;line-height:30px;min-block-size:0px;min-height:0px;min-inline-size:0px;min-width:0px;outline-color:rgb(51, 15, 26);overflow-x:visible;overflow-y:visible;text-decoration-color:rgb(51, 15, 26);width:auto;-webkit-text-emphasis-color:rgb(51, 15, 26);-webkit-text-fill-color:rgb(51, 15, 26);-webkit-text-stroke-color:rgb(51, 15, 26);--layout-sidebar-right-width: 1fr;--layout:  240px  2fr  1fr;--layout-content-width: 2fr;" id="svg_1" class="" transform="">
        <circle fill="#FFCC4D" cx="22.692265272140503" cy="22.749828815460205" r="18.566398859024048" style="block-size:auto;border-block-end-color:rgb(51, 15, 26);border-block-start-color:rgb(51, 15, 26);border-bottom-color:rgb(51, 15, 26);border-inline-end-color:rgb(51, 15, 26);border-inline-start-color:rgb(51, 15, 26);border-left-color:rgb(51, 15, 26);border-right-color:rgb(51, 15, 26);border-top-color:rgb(51, 15, 26);box-sizing:border-box;caret-color:rgb(51, 15, 26);color:rgb(51, 15, 26);column-rule-color:rgb(51, 15, 26);cx:18px;cy:18px;display:inline;fill:rgb(255, 204, 77);font-size:20px;height:auto;inline-size:auto;line-height:30px;min-block-size:0px;min-height:0px;min-inline-size:0px;min-width:0px;outline-color:rgb(51, 15, 26);overflow-x:visible;overflow-y:visible;r:18px;text-decoration-color:rgb(51, 15, 26);width:auto;-webkit-text-emphasis-color:rgb(51, 15, 26);-webkit-text-fill-color:rgb(51, 15, 26);-webkit-text-stroke-color:rgb(51, 15, 26);--layout-sidebar-right-width: 1fr;--layout:  240px  2fr  1fr;--layout-content-width: 2fr;" id="svg_2" transform=""/>
        <path fill="#664500" d="M32.32100506941515,28.57068244303582 a0.5167646934829122,0.5180755721661399 0 0 0 -0.6549812832454052,-0.029988415626772014 c-0.040227198357868144,0.029988415626772014 -4.045411947235493,2.9988411697466972 -8.973759251791648,2.9988411697466972 c-4.915969618752683,0 -8.934563410694523,-2.968852713671197 -8.973759251791648,-2.9988411697466972 a0.5157333016395569,0.5170415639877319 0 1 0 -0.7519390637834604,0.6793927437761766 C13.099625664908103,29.442414945948258 16.284794842743167,34.64178478717804 22.692265272140503,34.64178478717804 s9.593670507234151,-5.199369841229782 9.72569850001571,-5.42169787153307 a0.5147018483160011,0.5160074941731665 0 0 0 -0.09695787275835599,-0.6494042260645188 z" style="block-size:auto;border-block-end-color:rgb(51, 15, 26);border-block-start-color:rgb(51, 15, 26);border-bottom-color:rgb(51, 15, 26);border-inline-end-color:rgb(51, 15, 26);border-inline-start-color:rgb(51, 15, 26);border-left-color:rgb(51, 15, 26);border-right-color:rgb(51, 15, 26);border-top-color:rgb(51, 15, 26);box-sizing:border-box;caret-color:rgb(51, 15, 26);color:rgb(51, 15, 26);column-rule-color:rgb(51, 15, 26);display:inline;fill:rgb(102, 69, 0);font-size:20px;height:auto;inline-size:auto;line-height:30px;min-block-size:0px;min-height:0px;min-inline-size:0px;min-width:0px;outline-color:rgb(51, 15, 26);overflow-x:visible;overflow-y:visible;text-decoration-color:rgb(51, 15, 26);width:auto;-webkit-text-emphasis-color:rgb(51, 15, 26);-webkit-text-fill-color:rgb(51, 15, 26);-webkit-text-stroke-color:rgb(51, 15, 26);--layout-sidebar-right-width: 1fr;--layout:  240px  2fr  1fr;--layout-content-width: 2fr;" id="svg_3" transform=""/>
        <path fill="#65471B" d="M22.692265272140503,31.63363655764715 c-0.15265705925267525,0 -0.300156790407371,-0.011374916272223867 -0.4517823655963902,-0.01654533083346843 v4.6699191929226345 h0.9025332778692245 v-4.6709536941903025 c-0.14956263780180734,0.005170416487374485 -0.2980938530201591,0.017579414130943327 -0.45075091227283437,0.017579414130943327 z" style="block-size:auto;border-block-end-color:rgb(51, 15, 26);border-block-start-color:rgb(51, 15, 26);border-bottom-color:rgb(51, 15, 26);border-inline-end-color:rgb(51, 15, 26);border-inline-start-color:rgb(51, 15, 26);border-left-color:rgb(51, 15, 26);border-right-color:rgb(51, 15, 26);border-top-color:rgb(51, 15, 26);box-sizing:border-box;caret-color:rgb(51, 15, 26);color:rgb(51, 15, 26);column-rule-color:rgb(51, 15, 26);display:inline;fill:rgb(101, 71, 27);font-size:20px;height:auto;inline-size:auto;line-height:30px;min-block-size:0px;min-height:0px;min-inline-size:0px;min-width:0px;outline-color:rgb(51, 15, 26);overflow-x:visible;overflow-y:visible;text-decoration-color:rgb(51, 15, 26);width:auto;-webkit-text-emphasis-color:rgb(51, 15, 26);-webkit-text-fill-color:rgb(51, 15, 26);-webkit-text-stroke-color:rgb(51, 15, 26);--layout-sidebar-right-width: 1fr;--layout:  240px  2fr  1fr;--layout-content-width: 2fr;" id="svg_4" transform=""/>
        <path fill="#FFF" d="M26.818131685256958,31.022493839263916 c0.016503466436338377,-0.0041363327083671075 -1.4956266239388754,0.39088341325257403 -2.522967413923766,0.5025644633115007 c-0.3775168348374649,0.043431498493945675 -0.7601909977729093,0.07859033060809217 -1.1521481791401555,0.09203341540139576 v4.6709536941903025 H24.75519847869873 c1.1346132881991053,0 2.0629332065582275,-0.9306749137957695 2.0629332065582275,-2.0681662559509277 V31.022493839263916 zm-8.25173282623291,0 c-0.016503466436338377,-0.0041363327083671075 1.4956266239388754,0.39088341325257403 2.522967413923766,0.5025644633115007 c0.3775168348374649,0.043431498493945675 0.7601909977729093,0.07859033060809217 1.1521481791401555,0.09203341540139576 v4.6709536941903025 H20.629332065582275 c-1.1346132881991053,0 -2.0629332065582275,-0.9306749137957695 -2.0629332065582275,-2.0681662559509277 V31.022493839263916 z" style="block-size:auto;border-block-end-color:rgb(51, 15, 26);border-block-start-color:rgb(51, 15, 26);border-bottom-color:rgb(51, 15, 26);border-inline-end-color:rgb(51, 15, 26);border-inline-start-color:rgb(51, 15, 26);border-left-color:rgb(51, 15, 26);border-right-color:rgb(51, 15, 26);border-top-color:rgb(51, 15, 26);box-sizing:border-box;caret-color:rgb(51, 15, 26);color:rgb(51, 15, 26);column-rule-color:rgb(51, 15, 26);display:inline;fill:rgb(255, 255, 255);font-size:20px;height:auto;inline-size:auto;line-height:30px;min-block-size:0px;min-height:0px;min-inline-size:0px;min-width:0px;outline-color:rgb(51, 15, 26);overflow-x:visible;overflow-y:visible;text-decoration-color:rgb(51, 15, 26);width:auto;-webkit-text-emphasis-color:rgb(51, 15, 26);-webkit-text-fill-color:rgb(51, 15, 26);-webkit-text-stroke-color:rgb(51, 15, 26);--layout-sidebar-right-width: 1fr;--layout:  240px  2fr  1fr;--layout-content-width: 2fr;" id="svg_5" transform=""/>
        <path fill="#65471B" d="M32.32100506941515,28.57068244303582 a0.5167646934829122,0.5180755721661399 0 0 0 -0.6549812832454052,-0.029988415626772014 c-0.030944001249233688,0.022749832544447735 -2.3300831217306097,1.7248506397118604 -5.581265558194048,2.5541853556847514 c-0.4569396936943697,0.11685139142723422 -1.922653833109024,0.44465575242578836 -3.3893992721467328,0.4456898222403538 c-1.4688084686452214,0 -2.938648329133798,-0.3288384231085999 -3.3955881150484686,-0.4456898222403538 c-3.25118268238424,-0.829334592700576 -5.550321835526972,-2.5314354499473666 -5.581265558194048,-2.5541853556847514 a0.5167646934829122,0.5180755721661399 0 0 0 -0.7519390637834604,0.6793927437761766 c0.10005226346912366,0.1675214672251144 1.9443145373442974,3.171532862772324 5.599832086899255,4.6337264412320565 v-1.8913380371224093 c-0.016503466436338377,-0.0041363327083671075 1.4956266239388754,0.39088341325257403 2.522967413923766,0.5025644633115007 c0.3775168348374649,0.043431498493945675 0.7601909977729093,0.07859033060809217 1.1521481791401555,0.09203341540139576 c0.15059410649541327,0.005170416487374485 0.2980938530201591,0.01654533083346843 0.45075091227283437,0.01654533083346843 c0.15265705925267525,0 0.300156790407371,-0.011374916272223867 0.4517823655963902,-0.01654533083346843 c0.3919573658078477,-0.013443080941043739 0.7746313443026906,-0.04756783168384526 1.1521481791401555,-0.09203341540139576 c1.02734072850469,-0.1116809807182495 2.539470667100659,-0.5067007425697625 2.522967413923766,-0.5025644633115007 v1.8913380371224093 c3.6555177954757596,-1.4621935784597326 5.49977970046973,-4.46620528218773 5.599832086899255,-4.6337264412320565 a0.5157333016395569,0.5170415639877319 0 0 0 -0.09798934145196192,-0.6494042260645188 zm-0.7333726580386539,-9.93236797083864 c0,1.7724184675434458 -0.9675158209364483,3.209794123908978 -2.161953955223595,3.209794123908978 c-1.1934069268843928,0 -2.161953955223595,-1.437375533093217 -2.161953955223595,-3.209794123908978 s0.9675158209364483,-3.209794123908978 2.161953955223595,-3.209794123908978 c1.194438318727748,0 2.161953955223595,1.437375533093217 2.161953955223595,3.209794123908978 zm-17.70718698962537,0 c0,1.7724184675434458 0.9675158209364483,3.209794123908978 2.161953955223595,3.209794123908978 c1.1934069268843928,0 2.161953955223595,-1.437375533093217 2.161953955223595,-3.209794123908978 s-0.9675158209364483,-3.209794123908978 -2.161953955223595,-3.209794123908978 c-1.194438318727748,0 -2.161953955223595,1.437375533093217 -2.161953955223595,3.209794123908978 z" style="block-size:auto;border-block-end-color:rgb(51, 15, 26);border-block-start-color:rgb(51, 15, 26);border-bottom-color:rgb(51, 15, 26);border-inline-end-color:rgb(51, 15, 26);border-inline-start-color:rgb(51, 15, 26);border-left-color:rgb(51, 15, 26);border-right-color:rgb(51, 15, 26);border-top-color:rgb(51, 15, 26);box-sizing:border-box;caret-color:rgb(51, 15, 26);color:rgb(51, 15, 26);column-rule-color:rgb(51, 15, 26);display:inline;fill:rgb(101, 71, 27);font-size:20px;height:auto;inline-size:auto;line-height:30px;min-block-size:0px;min-height:0px;min-inline-size:0px;min-width:0px;outline-color:rgb(51, 15, 26);overflow-x:visible;overflow-y:visible;text-decoration-color:rgb(51, 15, 26);width:auto;-webkit-text-emphasis-color:rgb(51, 15, 26);-webkit-text-fill-color:rgb(51, 15, 26);-webkit-text-stroke-color:rgb(51, 15, 26);--layout-sidebar-right-width: 1fr;--layout:  240px  2fr  1fr;--layout-content-width: 2fr;" id="svg_6" transform=""/>
        <path fill="#292F33" d="M40.02915455502989,14.091450635022511 c-0.17638083920561165,-0.17165777730145493 -1.3068681450399424,0.2833387965423029 -2.4507645746312505,-0.30091819911646667 c-2.3599956984751316,-1.2057409360949976 -8.323935173683822,-2.3690843317950794 -12.20637540547068,0.38881527362344315 c-0.4156810381704332,0.29471368777483775 -2.152670690870991,0.3443496860536328 -2.638491661686828,0.3236680123996152 c-0.4858207863752355,0.021715749246972837 -2.222810500555994,-0.02792024903182222 -2.638491661686828,-0.3236680123996152 c-3.8814088399435036,-2.7578997595089163 -9.845348806993798,-1.5945562405365195 -12.20534450546893,-0.38881527362344315 c-1.143896429591308,0.5842569648406908 -2.2743837815357892,0.12926039099693298 -2.4507645746312505,0.30091819911646667 c-0.2547722754790609,0.2471458753522917 -0.2547722754790609,1.2367634003489059 0.0010314666522711485,1.4849433609248024 c0.25374079141540484,0.2471458753522917 1.5234761710758846,0.5325527344785286 1.7761852478768816,1.2739904067625218 c0.2547722754790609,0.7424716804624012 0.25683521286627276,5.126984337848626 2.2826356540450377,6.642949793210391 c1.8968670696587253,1.418762029886409 6.321859004299597,1.8458382256476398 9.126416065123522,0.2461117901286869 c2.4466387613370273,-1.3949781159706163 2.361027090318487,-4.331774357209497 2.809715003723909,-6.081442919015558 c0.15987732473786664,-0.6235522341557527 0.610628237010701,-0.9379135257700426 1.2996479102948513,-0.9379135257700426 s1.1397706162970849,0.3143613224323687 1.2996479102948513,0.9379135257700426 c0.4486879748856225,1.748634553627653 0.3620447890633258,4.686464803044942 2.809715003723909,6.081442919015558 c2.8045575526655284,1.5986925197947812 7.229549241385598,1.1716162007612354 9.12538516512177,-0.2461117901286869 c2.026832032832772,-1.5149318170003028 2.0288948165194824,-5.900478174384148 2.2826356540450377,-6.642949793210391 c0.2527093227217989,-0.7414376106478358 1.5224447792325293,-1.0278786474519137 1.7761852478768816,-1.2739904067625218 c0.2558037441726668,-0.2481799759849359 0.25683521286627276,-1.2377975317996288 0.0010314666522711485,-1.4849433609248024 zm-20.829436838441325,3.774403515728295 c-0.07942294339218048,1.142661876136458 -0.2826218687262205,3.336986252004465 -1.6472522913481953,4.115650869065917 c-0.8365193429586455,0.47774641794498507 -1.9267796464032472,0.7683238572796398 -3.0675816545436874,0.7683238572796398 h-0.0010314666522711485 c-1.2635466136089946,0 -3.0149769817205367,-0.3588268483660215 -3.699870595789662,-0.8706980016447687 c-0.8561173864676093,-0.6400974744611148 -1.1820607558846774,-3.2749413234966482 -1.3048052383928308,-4.260422368917489 c-0.07839147469857455,-0.627688575050172 -0.28881065014775587,-2.1612336487126527 0.40020905387649464,-2.397004771513764 c1.0933545404548681,-0.37330401067841024 2.6188937411382653,-0.6649155814637879 4.179502723703763,-0.6649155814637879 c0.7148064982146494,0 3.1160605140726148,0.044465576013030805 4.285743953035023,0.7662555943781939 c1.0366239313770933,0.6380293964681414 0.8994387949381561,1.9140879428597941 0.8550858101836525,2.542810526088374 zm16.790213242265963,-0.26162302225564105 c-0.12274452861830376,0.9865154234161935 -0.4486879748856225,3.6348020567687627 -1.3048052383928308,4.27489946959372 c-0.6848939214701275,0.5118711532787472 -2.4363241051410682,0.8706980016447687 -3.699870595789662,0.8706980016447687 h-0.0010314666522711485 c-1.1418335229441965,0 -2.2310623730652424,-0.2905773468804185 -3.0686130463870427,-0.7683238572796398 c-1.3646302689214735,-0.7776304239745713 -1.5678292173105888,-2.9585118922532274 -1.6472522913481953,-4.101173768389685 c-0.043321604438685934,-0.6287226448647374 -0.18153815193354106,-1.9140879428597941 0.8550858101836525,-2.5521170927833055 c1.170714584884962,-0.7217901608987773 3.5709372703797726,-0.7714260050871786 4.285743953035023,-0.7714260050871786 c1.5606089825654976,0 3.0851165454847376,0.28644103680407795 4.179502723703763,0.6597450474824882 c0.6890197962445512,0.23577095330167808 0.47963197421359993,1.7600093832240304 0.40124056868025093,2.3876979582742024 z" style="block-size:auto;border-block-end-color:rgb(51, 15, 26);border-block-start-color:rgb(51, 15, 26);border-bottom-color:rgb(51, 15, 26);border-inline-end-color:rgb(51, 15, 26);border-inline-start-color:rgb(51, 15, 26);border-left-color:rgb(51, 15, 26);border-right-color:rgb(51, 15, 26);border-top-color:rgb(51, 15, 26);box-sizing:border-box;caret-color:rgb(51, 15, 26);color:rgb(51, 15, 26);column-rule-color:rgb(51, 15, 26);display:inline;fill:rgb(41, 47, 51);font-size:20px;height:auto;inline-size:auto;line-height:30px;min-block-size:0px;min-height:0px;min-inline-size:0px;min-width:0px;outline-color:rgb(51, 15, 26);overflow-x:visible;overflow-y:visible;text-decoration-color:rgb(51, 15, 26);width:auto;-webkit-text-emphasis-color:rgb(51, 15, 26);-webkit-text-fill-color:rgb(51, 15, 26);-webkit-text-stroke-color:rgb(51, 15, 26);--layout-sidebar-right-width: 1fr;--layout:  240px  2fr  1fr;--layout-content-width: 2fr;" id="svg_7" transform=""/>
    </g></g></svg>