<svg xmlns="http://www.w3.org/2000/svg" width="44" height="44" role="img" aria-labelledby="amdf9zfw5381oafxglrcos4be7qcq8aw"><rect id="backgroundrect" width="100%" height="100%" x="0" y="0" fill="none" stroke="none"/><title id="amdf9zfw5381oafxglrcos4be7qcq8aw">Home</title>
    
<g class="currentLayer" style=""><title>Layer 1</title><g class="nc-icon-wrapper" id="svg_1" transform="">
        <path fill="#A0041E" d="M12.0372896194458,16.547359943389893 h-2.5145456790924072 a0.6286365389823914,0.6286365389823914 0 0 1 -0.6286365389823914,-0.6286365389823914 v-8.800909042358398 a0.6286365389823914,0.6286365389823914 0 0 1 0.6286365389823914,-0.6286365389823914 h2.5145456790924072 a0.6286365389823914,0.6286365389823914 0 0 1 0.6286365389823914,0.6286365389823914 v8.800909042358398 a0.6286365389823914,0.6286365389823914 0 0 1 -0.6286365389823914,0.6286365389823914 z" id="svg_2" transform=""/>
        <path fill="#FFE8B6" d="M6.575697422027588,18.179300785064697 L22.920244216918945,1.8347537512890995 l16.344547271728516,16.344547271728516 v21.373638153076172 H6.575697422027588 z" id="svg_3" transform=""/>
        <path fill="#FFCC4D" d="M22.920244216918945,18.179300785064697 h1.2572728395462036 v20.116365432739258 h-1.2572728395462036 z" id="svg_4" transform=""/>
        <path fill="#66757F" d="M39.26478958129883,19.43657159805298 a1.253501057624817,1.253501057624817 0 0 1 -0.8888918161392212,-0.3683808445930481 L22.920244216918945,3.612537145614624 L7.464589595794678,19.06819200515747 a1.2572728395462036,1.2572728395462036 0 1 1 -1.7777838706970215,-1.7777838706970215 l16.344547271728516,-16.344547271728516 a1.2560155391693115,1.2560155391693115 0 0 1 1.7777838706970215,0 l16.344547271728516,16.344547271728516 A1.2560155391693115,1.2560155391693115 0 0 1 39.26478958129883,19.43657159805298 z" id="svg_5" transform=""/>
        <path fill="#66757F" d="M22.920244216918945,19.43657159805298 a1.2560155391693115,1.2560155391693115 0 0 1 -0.8888918161392212,-2.146164655685425 l8.172273635864258,-8.172273635864258 a1.2572728395462036,1.2572728395462036 0 1 1 1.7777838706970215,1.7777838706970215 l-8.172273635864258,8.172273635864258 A1.253501057624817,1.253501057624817 0 0 1 22.920244216918945,19.43657159805298 z" id="svg_6" transform=""/>
        <path fill="#C1694F" d="M12.862062454223633,30.752027988433838 h5.0290913581848145 v7.543637275695801 h-5.0290913581848145 z" id="svg_7" transform=""/>
        <path fill="#55ACEE" d="M12.862062454223633,19.43657159805298 h5.0290913581848145 v5.0290913581848145 h-5.0290913581848145 zm15.715910911560059,0 h5.0290913581848145 v5.0290913581848145 h-5.0290913581848145 zm0,11.31545639038086 h5.0290913581848145 v5.0290913581848145 h-5.0290913581848145 z" id="svg_8" transform=""/>
        <path fill="#5C913B" d="M42.4079704284668,40.18157434463501 A1.8859093189239502,1.8859093189239502 0 0 1 40.52206039428711,42.0674843788147 H5.318424701690674 a1.8859093189239502,1.8859093189239502 0 0 1 0,-3.771818161010742 h35.20363998413086 a1.8859093189239502,1.8859093189239502 0 0 1 1.8859093189239502,1.8859093189239502 z" id="svg_9" transform=""/>
    </g></g></svg>