<svg xmlns:dc="http://purl.org/dc/elements/1.1/" xmlns:cc="http://creativecommons.org/ns#" xmlns:rdf="http://www.w3.org/1999/02/22-rdf-syntax-ns#" xmlns:svg="http://www.w3.org/2000/svg" xmlns="http://www.w3.org/2000/svg" version="1.1" height="44" width="44" style=""><rect id="backgroundrect" width="100%" height="100%" x="0" y="0" fill="none" stroke="none"/>
  <metadata id="metadata18">
    <rdf:RDF>
      <cc:Work rdf:about="">
        <dc:format>image/svg+xml</dc:format>
        <dc:type rdf:resource="http://purl.org/dc/dcmitype/StillImage"/>
      </cc:Work>
    </rdf:RDF>
  </metadata>
  <defs id="defs16"/>
  
<g class="currentLayer" style=""><title>Layer 1</title><g id="g10" class="nc-icon-wrapper" transform="rotate(-0.0000150128 23.2421 21.4004)">
    <path id="path2" d="M39.135653257369995,0.9325159788131714 H14.136333227157593 a4.54533052444458,4.54533052444458 0 0 0 -4.54533052444458,4.54533052444458 v27.271982192993164 H7.318337678909302 a4.54533052444458,4.54533052444458 0 0 0 0,9.09066104888916 h27.271982192993164 a4.54533052444458,4.54533052444458 0 0 0 4.54533052444458,-4.54533052444458 V10.023177146911621 a4.54533052444458,4.54533052444458 0 0 0 0,-9.09066104888916 z" fill="#FFD983" transform=""/>
    <path id="path4" d="M11.863668203353882,12.295843124389648 h27.271982192993164 v-2.27266526222229 H14.136333227157593 l-2.27266526222229,-1.136332631111145 z" fill="#E39F3D" transform=""/>
    <path id="path6" d="M14.136333227157593,0.9325159788131714 a4.54533052444458,4.54533052444458 0 0 0 -4.54533052444458,4.54533052444458 v27.90264892578125 A4.494195461273193,4.494195461273193 0 0 0 7.318337678909302,32.74983215332031 a4.54533052444458,4.54533052444458 0 1 0 4.54533052444458,4.54533052444458 V9.392512321472168 c0.6704365611076355,0.3908984363079071 1.4408698081970215,0.630664587020874 2.27266526222229,0.630664587020874 a4.54533052444458,4.54533052444458 0 0 0 0,-9.09066104888916 z" fill="#FFE8B6" transform=""/>
    <path id="path8" d="M16.408998250961304,5.477846145629883 a2.27266526222229,2.27266526222229 0 1 1 -4.546466827392578,-0.0011363327503204346 A2.27266526222229,2.27266526222229 0 0 1 16.408998250961304,5.477846145629883 m-6.817996025085449,31.81731414794922 a2.27266526222229,2.27266526222229 0 1 1 -4.546466827392578,-0.0011363327503204346 A2.27266526222229,2.27266526222229 0 0 1 9.591002702713013,37.29515838623047 m27.271982192993164,-19.317655563354492 a1.136332631111145,1.136332631111145 0 0 1 -1.136332631111145,1.136332631111145 H15.272665739059448 a1.136332631111145,1.136332631111145 0 0 1 0,-2.27266526222229 h20.45398712158203 a1.136332631111145,1.136332631111145 0 0 1 1.136332631111145,1.136332631111145 m0,4.54533052444458 a1.136332631111145,1.136332631111145 0 0 1 -1.136332631111145,1.136332631111145 H15.272665739059448 a1.136332631111145,1.136332631111145 0 1 1 0,-2.27266526222229 h20.45398712158203 a1.136332631111145,1.136332631111145 0 0 1 1.136332631111145,1.136332631111145 m0,4.54533052444458 a1.136332631111145,1.136332631111145 0 0 1 -1.136332631111145,1.136332631111145 H15.272665739059448 a1.136332631111145,1.136332631111145 0 1 1 0,-2.27266526222229 h20.45398712158203 a1.136332631111145,1.136332631111145 0 0 1 1.136332631111145,1.136332631111145 m0,4.54533052444458 a1.136332631111145,1.136332631111145 0 0 1 -1.136332631111145,1.136332631111145 H15.272665739059448 a1.136332631111145,1.136332631111145 0 1 1 0,-2.27266526222229 h20.45398712158203 a1.136332631111145,1.136332631111145 0 0 1 1.136332631111145,1.136332631111145 " fill="#C1694F" transform=""/>
  </g></g></svg>