<svg id="Capa_1" enable-background="new 0 0 512 512" height="512" viewBox="0 0 512 512" width="512" xmlns="http://www.w3.org/2000/svg"><g><path d="m179.124 410.702h44.998 63.748 44.998l-21.17 80.504h-114.421z" fill="#b6002a"/><path d="m341.955 464.22c18.09 12.475 33.337 28.804 44.566 47.78h-261.049c11.229-18.976 26.476-35.304 44.566-47.78" fill="#dd636e"/><path d="m219.167 464.22c-7.757 12.475-14.289 28.804-19.1 47.78h-74.595c11.229-18.976 26.476-35.304 44.566-47.78z" fill="#da4a54"/><path d="m308.674 465.373-52.677 8.902-52.683-8.902c-14.395 0-18.43-10.962-5.126-16.459.153-.063.305-.126.458-.188 8.159-3.338 16.679-5.996 25.476-7.871v-82.007h63.748v82.007c8.932 1.911 17.571 4.609 25.841 8.018 13.359 5.507 9.412 16.5-5.037 16.5z" fill="#ffddce"/><path d="m247.065 385.617v87.771h-48.419v-24.663c8.159-3.338 16.679-5.996 25.476-7.871v-55.238h22.943z" fill="#ffcbbe"/><path d="m287.87 385.617v22.849c-7.222 1.463-14.701 2.235-22.355 2.235h-19.038c-7.654 0-15.133-.773-22.355-2.235v-22.849z" fill="#ffcbbe"/><path d="m179.121 410.7-11.155 36.821c-4.035 13.32 5.933 26.755 19.85 26.755h68.18z" fill="#da4a54"/><path d="m332.872 410.7 11.155 36.821c4.035 13.32-5.933 26.755-19.85 26.755h-68.18z" fill="#dd636e"/><path d="m255.996 499.141c-4.267 0-7.726-3.459-7.726-7.726v-17.138c0-4.267 3.459-7.726 7.726-7.726s7.726 3.459 7.726 7.726v17.138c.001 4.267-3.459 7.726-7.726 7.726z" fill="#b6002a"/><g fill="#ffcbbe"><circle cx="114.327" cy="272.881" r="40.809"/><circle cx="397.673" cy="272.881" r="40.809"/></g><g fill="#eaac9d"><path d="m136.421 284.718c-2.796 0-5.508-1.476-6.964-4.092-2.498-4.493-6.793-6.986-13.128-7.622-5.184-.521-9.671.501-9.714.511-4.272 1.046-8.58-1.564-9.627-5.833-1.048-4.269 1.563-8.58 5.833-9.627.712-.175 7.188-1.686 15.1-.89 11.575 1.163 20.375 6.6 25.449 15.724 2.137 3.842.754 8.688-3.088 10.825-1.224.68-2.552 1.003-3.861 1.004z"/><path d="m375.584 284.718c-1.309 0-2.636-.324-3.862-1.005-3.841-2.137-5.224-6.983-3.087-10.825 5.075-9.124 13.875-14.561 25.45-15.724 7.909-.795 14.387.715 15.1.89 4.269 1.048 6.881 5.358 5.833 9.627-1.046 4.258-5.34 6.866-9.594 5.841-.158-.036-4.812-1.087-10.127-.479-6.132.702-10.302 3.182-12.749 7.582-1.456 2.617-4.168 4.092-6.964 4.093z"/></g><path d="m377.236 237.539-15.636-131.39h-210.685l-16.152 131.395v38.604c0 61.699 50.017 111.717 111.717 111.717h19.039c61.699 0 111.717-50.017 111.717-111.717z" fill="#ffddce"/><path d="m292.056 384.682c-8.509 2.081-17.389 3.183-26.537 3.183h-19.039c-61.697 0-111.723-50.015-111.723-111.713v-170h72.102v170c.001 52.56 36.304 96.642 85.197 108.53z" fill="#ffcbbe"/><path d="m138.448 113.209-3.686 41.24v83.096c35.819 0 32.698-87.401 32.698-87.401v-26.908z" fill="#986b54"/><path d="m344.546 123.23v26.908s-3.121 87.401 32.698 87.401v-83.096l-3.686-41.24z" fill="#986b54"/><g fill="#2b4d66"><path d="m198.417 231.914c-7.454 0-13.519 8.309-13.519 18.522s6.064 18.522 13.519 18.522c7.454 0 13.519-8.309 13.519-18.522s-6.064-18.522-13.519-18.522z"/><path d="m313.582 231.914c-7.454 0-13.519 8.309-13.519 18.522s6.064 18.522 13.519 18.522 13.519-8.309 13.519-18.522-6.065-18.522-13.519-18.522z"/></g><path d="m215.797 218.333c-1.977 0-3.955-.755-5.463-2.263-6.131-6.13-16.105-6.13-22.235 0-3.017 3.017-7.909 3.017-10.927 0s-3.018-7.909 0-10.927c12.155-12.156 31.934-12.156 44.089 0 3.018 3.017 3.018 7.909 0 10.927-1.509 1.508-3.487 2.263-5.464 2.263z" fill="#aa7a63"/><path d="m330.529 218.333c-1.977 0-3.955-.755-5.463-2.263-6.131-6.13-16.105-6.13-22.235 0-3.017 3.017-7.909 3.017-10.927 0s-3.018-7.909 0-10.927c12.155-12.156 31.934-12.156 44.089 0 3.018 3.017 3.018 7.909 0 10.927-1.509 1.508-3.486 2.263-5.464 2.263z" fill="#aa7a63"/><path d="m256 304.671c-14.268 0-27.077-9.542-31.15-23.203-1.219-4.09 1.108-8.393 5.197-9.612 4.088-1.219 8.392 1.108 9.612 5.197 2.135 7.163 8.856 12.166 16.342 12.166 7.495 0 14.214-5 16.34-12.157 1.215-4.091 5.516-6.422 9.606-5.208 4.091 1.215 6.422 5.516 5.208 9.606-4.06 13.666-16.871 23.211-31.155 23.211z" fill="#eaa598"/><path d="m393.352 138.327c14.887-14.887 14.887-39.024 0-53.912l-57.315-57.315c-11.894-11.894-31.178-11.894-43.072 0-6.358 6.358-9.314 14.827-8.875 23.151l-40.922-40.923c-12.437-12.437-32.602-12.437-45.039 0-8.638 8.638-11.27 21.003-7.909 31.919l-13.819-13.819c-12.437-12.437-32.602-12.437-45.039 0-12.437 12.437-12.437 32.602 0 45.039l13.819 13.819c-10.849-3.341-23.13-.761-31.761 7.753-12.558 12.388-12.137 33.216.337 45.69l.249.249c41.876 41.876 109.771 41.876 151.647 0l9.972-9.972c21.311-21.311 55.863-21.311 77.174 0l24.439 24.439z" fill="#aa7a63"/><path d="m178.404 139.984c12.651 12.64 27.671 21.469 43.628 26.465-36.891 11.579-78.799 2.761-108.035-26.465l-.247-.258c-12.475-12.465-12.898-33.295-.33-45.688 8.623-8.509 20.902-11.095 31.761-7.747l-13.825-13.825c-6.222-6.222-9.323-14.361-9.323-22.52 0-8.149 3.101-16.298 9.323-22.52 12.434-12.434 32.605-12.434 45.039 0l11.868 11.878c-1.216 3.441-1.823 7.036-1.823 10.642 0 8.159 3.101 16.298 9.323 22.52l13.815 13.825c-10.848-3.348-23.128-.762-31.76 7.747-12.558 12.393-12.135 33.223.34 45.688z" fill="#986b54"/></g></svg>